<svg xmlns="http://www.w3.org/2000/svg" xmlns:xlink="http://www.w3.org/1999/xlink" viewBox="0 0 41 44.102">
  <defs>
    <linearGradient id="linear-gradient" x1="0.188" y1="1.059" x2="0.794" y2="0.211" gradientUnits="objectBoundingBox">
      <stop offset="0.005" stop-color="#fff" stop-opacity="0.698"/>
      <stop offset="1" stop-color="#fff"/>
    </linearGradient>
    <linearGradient id="linear-gradient-2" x1="0.188" y1="1.059" x2="0.794" y2="0.211" xlink:href="#linear-gradient"/>
  </defs>
  <g id="Group_22" data-name="Group 22" transform="translate(-585.898 -380.574)">
    <path id="Path_45" data-name="Path 45" d="M625.4,398.8a9.969,9.969,0,0,1-9.876,9.988H595.775a9.834,9.834,0,0,1-2.909-19.238,10.006,10.006,0,0,1,9.822-8.981,9.713,9.713,0,0,1,9.768,8.244h3.072A9.969,9.969,0,0,1,625.4,398.8Z" fill="url(#linear-gradient)"/>
    <path id="Path_46" data-name="Path 46" d="M613.065,402.824a6.161,6.161,0,0,1-6.1,6.173H594.753a6.078,6.078,0,0,1-1.8-11.89,6.185,6.185,0,0,1,6.071-5.551,6,6,0,0,1,6.037,5.1h1.9A6.162,6.162,0,0,1,613.065,402.824Z" fill="url(#linear-gradient-2)"/>
    <path id="Path_47" data-name="Path 47" d="M595.148,413.073l.712-.027c.449-.018,1.083-.041,1.83-.093s1.6-.121,2.5-.259c.447-.069.9-.159,1.353-.265a12.486,12.486,0,0,0,1.332-.407l.767-.24c.285-.064.587-.117.871-.159a7.572,7.572,0,0,1,1.6,0,8.762,8.762,0,0,1,2.656.742,9.216,9.216,0,0,1,1.664.983,4.859,4.859,0,0,1,.564.477l-.7-.152c-.44-.091-1.061-.216-1.8-.316a14.838,14.838,0,0,0-2.455-.159c-.22,0-.438.03-.66.04s-.439.067-.661.09c-.208.045-.4.1-.608.136l-.686.227c-.264.085-.526.182-.791.252s-.531.131-.794.172a9.835,9.835,0,0,1-1.549.142,11.408,11.408,0,0,1-2.688-.285,10.857,10.857,0,0,1-1.812-.584A5.576,5.576,0,0,1,595.148,413.073Z" fill="#fff" opacity="0.9"/>
    <path id="Path_48" data-name="Path 48" d="M620.219,417.052l-.711-.053c-.447-.036-1.08-.082-1.825-.162s-1.6-.182-2.487-.353c-.444-.086-.894-.193-1.342-.316a12.23,12.23,0,0,1-1.315-.457l-.758-.269c-.283-.075-.583-.139-.865-.191a7.6,7.6,0,0,0-1.6-.057,8.751,8.751,0,0,0-2.681.641,9.215,9.215,0,0,0-1.7.92,4.919,4.919,0,0,0-.581.455l.7-.126c.443-.073,1.068-.175,1.806-.247a14.752,14.752,0,0,1,2.459-.067c.219.011.437.047.658.066s.436.082.657.114c.206.052.4.113.6.159l.676.253c.261.094.52.2.781.281s.526.151.788.2a9.806,9.806,0,0,0,1.542.2,11.336,11.336,0,0,0,2.7-.184,10.9,10.9,0,0,0,1.833-.514A5.5,5.5,0,0,0,620.219,417.052Z" fill="#fff" opacity="0.9"/>
  </g>
</svg>
