<svg xmlns="http://www.w3.org/2000/svg" xmlns:xlink="http://www.w3.org/1999/xlink" viewBox="0 0 41 44.102">
  <defs>
    <filter id="Ellipse_15" x="18.166" y="0" width="34.753" height="34.753" filterUnits="userSpaceOnUse">
      <feOffset dx="7" dy="7" input="SourceAlpha"/>
      <feGaussianBlur stdDeviation="2.5" result="blur"/>
      <feFlood flood-opacity="0.102"/>
      <feComposite operator="in" in2="blur"/>
      <feComposite in="SourceGraphic"/>
    </filter>
    <linearGradient id="linear-gradient" x1="0.188" y1="1.059" x2="0.794" y2="0.211" gradientUnits="objectBoundingBox">
      <stop offset="0.005" stop-color="#fff" stop-opacity="0.698"/>
      <stop offset="1" stop-color="#fff"/>
    </linearGradient>
    <linearGradient id="linear-gradient-2" x1="0.188" y1="1.059" x2="0.794" y2="0.211" xlink:href="#linear-gradient"/>
  </defs>
  <g id="Group_23" data-name="Group 23" transform="translate(-330.476 -479.03)">
    <g transform="matrix(1, 0, 0, 1, 330.48, 479.03)" filter="url(#Ellipse_15)">
      <circle id="Ellipse_15-2" data-name="Ellipse 15" cx="9.877" cy="9.877" r="9.877" transform="translate(18.67 0.5)" fill="#f9ff00"/>
    </g>
    <path id="Path_49" data-name="Path 49" d="M369.982,500.992a9.969,9.969,0,0,1-9.876,9.988H340.353a9.835,9.835,0,0,1-2.909-19.239,10.007,10.007,0,0,1,9.822-8.981A9.713,9.713,0,0,1,357.034,491h3.072A9.969,9.969,0,0,1,369.982,500.992Z" fill="url(#linear-gradient)"/>
    <path id="Path_50" data-name="Path 50" d="M358.443,505.011a6.162,6.162,0,0,1-6.1,6.173H340.13a6.079,6.079,0,0,1-1.8-11.891,6.185,6.185,0,0,1,6.071-5.55,6,6,0,0,1,6.037,5.1h1.9A6.162,6.162,0,0,1,358.443,505.011Z" fill="url(#linear-gradient-2)"/>
    <path id="Path_51" data-name="Path 51" d="M337.131,515.259l.711-.026c.449-.019,1.084-.041,1.83-.093s1.606-.122,2.5-.259c.447-.069.9-.16,1.353-.265a12.43,12.43,0,0,0,1.332-.408l.767-.24c.286-.064.588-.117.871-.158a7.656,7.656,0,0,1,1.6,0,8.756,8.756,0,0,1,2.655.743,9.112,9.112,0,0,1,1.665.983,5.049,5.049,0,0,1,.564.476l-.7-.152c-.44-.09-1.061-.216-1.795-.316a14.934,14.934,0,0,0-2.455-.159c-.219,0-.438.031-.66.041s-.439.066-.661.09c-.207.044-.4.1-.608.136l-.685.227c-.265.084-.527.181-.792.251s-.531.131-.794.173a10.065,10.065,0,0,1-1.549.142,11.4,11.4,0,0,1-2.688-.286,10.9,10.9,0,0,1-1.812-.583A5.479,5.479,0,0,1,337.131,515.259Z" fill="#fff" opacity="0.9"/>
    <path id="Path_52" data-name="Path 52" d="M362.2,519.239l-.71-.054c-.448-.035-1.081-.081-1.825-.161s-1.6-.183-2.488-.354c-.444-.086-.893-.193-1.342-.315a12.454,12.454,0,0,1-1.315-.458l-.758-.269c-.283-.074-.582-.139-.864-.191a7.68,7.68,0,0,0-1.6-.057,8.75,8.75,0,0,0-2.681.642,9.132,9.132,0,0,0-1.7.92,5.043,5.043,0,0,0-.581.455l.7-.126c.442-.074,1.068-.176,1.805-.248a14.863,14.863,0,0,1,2.459-.066c.22.01.437.047.659.065s.435.083.657.115c.2.052.395.112.6.159l.677.252c.26.094.519.2.781.282s.525.15.787.2a9.935,9.935,0,0,0,1.542.2,11.389,11.389,0,0,0,2.7-.184,10.853,10.853,0,0,0,1.833-.515A5.625,5.625,0,0,0,362.2,519.239Z" fill="#fff" opacity="0.9"/>
  </g>
</svg>
