<svg xmlns="http://www.w3.org/2000/svg" xmlns:xlink="http://www.w3.org/1999/xlink" viewBox="0 0 41 44.102">
  <defs>
    <linearGradient id="linear-gradient" x1="0.188" y1="1.059" x2="0.794" y2="0.211" gradientUnits="objectBoundingBox">
      <stop offset="0.005" stop-color="#fff" stop-opacity="0.698"/>
      <stop offset="1" stop-color="#fff"/>
    </linearGradient>
    <linearGradient id="linear-gradient-2" x1="0.188" y1="1.059" x2="0.794" y2="0.211" xlink:href="#linear-gradient"/>
  </defs>
  <g id="Group_15" data-name="Group 15" transform="translate(-277.61 -380.466)">
    <path id="Path_32" data-name="Path 32" d="M293.525,405.775l-4.239,5.987a.926.926,0,0,0,.755,1.461h0a.926.926,0,0,1,.789,1.411l-2.26,3.674a.242.242,0,0,0,.367.307l7.182-6.424a.926.926,0,0,0-.447-1.6h0a.925.925,0,0,1-.621-1.391l1.465-2.408a.925.925,0,0,0-.791-1.407h-1.442A.928.928,0,0,0,293.525,405.775Z" fill="#30b3ff" opacity="0.9"/>
    <path id="Path_33" data-name="Path 33" d="M317.116,398.7a9.97,9.97,0,0,1-9.877,9.988H287.486a9.835,9.835,0,0,1-2.908-19.239,10.006,10.006,0,0,1,9.822-8.98,9.713,9.713,0,0,1,9.768,8.244h3.071A9.969,9.969,0,0,1,317.116,398.7Z" fill="url(#linear-gradient)"/>
    <path id="Path_34" data-name="Path 34" d="M304.777,402.716a6.162,6.162,0,0,1-6.1,6.173H286.464a6.078,6.078,0,0,1-1.8-11.89,6.184,6.184,0,0,1,6.07-5.551,6,6,0,0,1,6.037,5.1h1.9A6.162,6.162,0,0,1,304.777,402.716Z" fill="url(#linear-gradient-2)"/>
  </g>
</svg>
