<svg xmlns="http://www.w3.org/2000/svg" xmlns:xlink="http://www.w3.org/1999/xlink" width="40.971" height="44.102" viewBox="0 0 40.971 44.102">
  <defs>
    <linearGradient id="linear-gradient" x1="0.188" y1="1.059" x2="0.794" y2="0.211" gradientUnits="objectBoundingBox">
      <stop offset="0.005" stop-color="#fff" stop-opacity="0.698"/>
      <stop offset="1" stop-color="#fff"/>
    </linearGradient>
  </defs>
  <g id="Group_26" data-name="Group 26" transform="translate(-433.273 -476.038)">
    <g id="Group_24" data-name="Group 24">
      <path id="Path_53" data-name="Path 53" d="M472.78,498.729a9.969,9.969,0,0,1-9.877,9.987H443.15a9.834,9.834,0,0,1-2.909-19.238,10.008,10.008,0,0,1,9.823-8.981,9.714,9.714,0,0,1,9.768,8.244H462.9A9.97,9.97,0,0,1,472.78,498.729Z" fill="url(#linear-gradient)"/>
      <path id="Path_54" data-name="Path 54" d="M474.244,489.429a9.88,9.88,0,1,1-13.391-13.391,9.885,9.885,0,0,0,13.391,13.391Z" fill="#fff"/>
      <path id="Path_55" data-name="Path 55" d="M460.441,502.747a6.162,6.162,0,0,1-6.1,6.173H442.128a6.078,6.078,0,0,1-1.8-11.89,6.183,6.183,0,0,1,6.07-5.551,6,6,0,0,1,6.037,5.1h1.9A6.162,6.162,0,0,1,460.441,502.747Z" fill="url(#linear-gradient)"/>
    </g>
    <g id="Group_25" data-name="Group 25">
      <path id="Path_56" data-name="Path 56" d="M441.475,513.643l.712-.027c.449-.018,1.083-.04,1.83-.092s1.605-.122,2.5-.26c.447-.069.9-.159,1.353-.265a12.165,12.165,0,0,0,1.331-.407l.767-.24c.286-.064.588-.117.872-.158a7.642,7.642,0,0,1,1.6,0,8.754,8.754,0,0,1,2.655.742,9.2,9.2,0,0,1,1.665.983,5.112,5.112,0,0,1,.564.477l-.7-.152c-.44-.091-1.061-.216-1.795-.316a14.836,14.836,0,0,0-2.455-.159c-.22,0-.438.03-.661.041s-.438.066-.66.089c-.208.045-.4.1-.609.137l-.685.227c-.264.084-.527.181-.791.251s-.531.131-.795.173a9.925,9.925,0,0,1-1.548.141,11.351,11.351,0,0,1-2.688-.285,10.934,10.934,0,0,1-1.812-.583A5.664,5.664,0,0,1,441.475,513.643Z" fill="#fff" opacity="0.9"/>
      <path id="Path_57" data-name="Path 57" d="M466.545,517.622l-.71-.053c-.448-.035-1.081-.082-1.825-.162s-1.6-.182-2.487-.353c-.444-.086-.894-.193-1.342-.316a12.326,12.326,0,0,1-1.316-.457l-.757-.269c-.283-.074-.583-.139-.865-.191a7.607,7.607,0,0,0-1.6-.057,8.764,8.764,0,0,0-2.682.642,9.178,9.178,0,0,0-1.7.919,4.932,4.932,0,0,0-.582.456l.7-.126c.443-.074,1.068-.176,1.8-.248a14.871,14.871,0,0,1,2.46-.067c.219.011.436.047.658.066s.436.082.657.114c.206.053.395.113.6.159l.676.253c.261.094.519.2.781.281s.526.151.788.2a10.046,10.046,0,0,0,1.542.2,11.441,11.441,0,0,0,2.7-.184,10.963,10.963,0,0,0,1.832-.515A5.508,5.508,0,0,0,466.545,517.622Z" fill="#fff" opacity="0.9"/>
    </g>
  </g>
</svg>
