<svg xmlns="http://www.w3.org/2000/svg" xmlns:xlink="http://www.w3.org/1999/xlink" width="41" height="44.102" viewBox="0 0 41 44.102">
  <defs>
    <linearGradient id="linear-gradient" x1="0.188" y1="1.059" x2="0.794" y2="0.211" gradientUnits="objectBoundingBox">
      <stop offset="0.005" stop-color="#fff" stop-opacity="0.698"/>
      <stop offset="1" stop-color="#fff"/>
    </linearGradient>
    <linearGradient id="linear-gradient-2" x1="0.188" y1="1.059" x2="0.794" y2="0.211" xlink:href="#linear-gradient"/>
  </defs>
  <g id="Group_4" data-name="Group 4" transform="translate(-582.497 -179.943)">
    <path id="Path_6" data-name="Path 6" d="M622,202.634a9.97,9.97,0,0,1-9.877,9.988H592.373a9.835,9.835,0,0,1-2.908-19.239,10.006,10.006,0,0,1,9.822-8.981,9.713,9.713,0,0,1,9.768,8.244h3.071A9.97,9.97,0,0,1,622,202.634Z" fill="url(#linear-gradient)"/>
    <path id="Path_7" data-name="Path 7" d="M623.468,193.334a9.88,9.88,0,1,1-13.392-13.391,9.885,9.885,0,0,0,13.392,13.391Z" fill="#fff"/>
    <path id="Path_8" data-name="Path 8" d="M609.664,206.653a6.162,6.162,0,0,1-6.1,6.173H591.352a6.079,6.079,0,0,1-1.8-11.891,6.185,6.185,0,0,1,6.071-5.55,6,6,0,0,1,6.037,5.1h1.9A6.161,6.161,0,0,1,609.664,206.653Z" fill="url(#linear-gradient-2)"/>
  </g>
</svg>
