<svg xmlns="http://www.w3.org/2000/svg" xmlns:xlink="http://www.w3.org/1999/xlink" width="41" height="44.102" viewBox="0 0 41 44.102">
  <defs>
    <linearGradient id="linear-gradient" x1="0.188" y1="1.059" x2="0.794" y2="0.211" gradientUnits="objectBoundingBox">
      <stop offset="0.005" stop-color="#fff" stop-opacity="0.698"/>
      <stop offset="1" stop-color="#fff"/>
    </linearGradient>
  </defs>
  <g id="Group_5" data-name="Group 5" transform="translate(-380.73 -276.091)">
    <path id="Path_9" data-name="Path 9" d="M420.236,298.782a9.97,9.97,0,0,1-9.877,9.988H390.606a9.835,9.835,0,0,1-2.908-19.239,10.006,10.006,0,0,1,9.822-8.98,9.713,9.713,0,0,1,9.768,8.244h3.071A9.969,9.969,0,0,1,420.236,298.782Z" fill="url(#linear-gradient)"/>
    <path id="Path_10" data-name="Path 10" d="M421.7,289.483a9.88,9.88,0,1,1-13.392-13.392A9.886,9.886,0,0,0,421.7,289.483Z" fill="#fff"/>
    <path id="Path_11" data-name="Path 11" d="M407.9,302.8a6.162,6.162,0,0,1-6.1,6.173H389.585a6.078,6.078,0,0,1-1.8-11.89,6.184,6.184,0,0,1,6.07-5.551,6,6,0,0,1,6.037,5.1h1.9A6.162,6.162,0,0,1,407.9,302.8Z" fill="url(#linear-gradient)"/>
    <path id="Path_12" data-name="Path 12" d="M392.97,316.626a1.438,1.438,0,1,1-2.093-1.9,7.355,7.355,0,0,1,2.482-1.2.417.417,0,0,1,.561.508A7.382,7.382,0,0,1,392.97,316.626Z" fill="#30b3ff" opacity="0.9"/>
    <path id="Path_13" data-name="Path 13" d="M409.9,315.007a1.438,1.438,0,1,1-2.092-1.895,7.35,7.35,0,0,1,2.481-1.2.417.417,0,0,1,.561.509A7.362,7.362,0,0,1,409.9,315.007Z" fill="#30b3ff" opacity="0.9"/>
    <path id="Path_14" data-name="Path 14" d="M401.889,319.868a.991.991,0,1,1-1.442-1.306,5.087,5.087,0,0,1,1.71-.828.288.288,0,0,1,.387.351A5.08,5.08,0,0,1,401.889,319.868Z" fill="#30b3ff" opacity="0.9"/>
    <path id="Path_15" data-name="Path 15" d="M400.662,314.882a1.234,1.234,0,1,1-1.795-1.626A6.317,6.317,0,0,1,401,312.225a.358.358,0,0,1,.482.436A6.335,6.335,0,0,1,400.662,314.882Z" fill="#30b3ff" opacity="0.9"/>
  </g>
</svg>
