<svg xmlns="http://www.w3.org/2000/svg" xmlns:xlink="http://www.w3.org/1999/xlink" viewBox="0 0 41 44.102">
  <defs>
    <linearGradient id="linear-gradient" x1="0.188" y1="1.059" x2="0.794" y2="0.211" gradientUnits="objectBoundingBox">
      <stop offset="0.005" stop-color="#fff" stop-opacity="0.698"/>
      <stop offset="1" stop-color="#fff"/>
    </linearGradient>
    <filter id="Path_28" x="0" y="0" width="54.506" height="43.219" filterUnits="userSpaceOnUse">
      <feOffset dx="7" dy="7" input="SourceAlpha"/>
      <feGaussianBlur stdDeviation="2.5" result="blur"/>
      <feFlood flood-opacity="0.102"/>
      <feComposite operator="in" in2="blur"/>
      <feComposite in="SourceGraphic"/>
    </filter>
    <linearGradient id="linear-gradient-2" x1="0.188" y1="1.059" x2="0.794" y2="0.211" xlink:href="#linear-gradient"/>
    <filter id="Path_29" x="2.751" y="10.982" width="39.416" height="32.441" filterUnits="userSpaceOnUse">
      <feOffset dx="7" dy="7" input="SourceAlpha"/>
      <feGaussianBlur stdDeviation="2.5" result="blur-2"/>
      <feFlood flood-opacity="0.102"/>
      <feComposite operator="in" in2="blur-2"/>
      <feComposite in="SourceGraphic"/>
    </filter>
  </defs>
  <g id="Group_12" data-name="Group 12" transform="translate(-482.711 -280.006)">
    <g id="Group_11" data-name="Group 11">
      <g transform="matrix(1, 0, 0, 1, 482.71, 280.01)" filter="url(#Path_28)">
        <path id="Path_28-2" data-name="Path 28" d="M522.717,298.737a9.969,9.969,0,0,1-9.876,9.988H493.088a9.835,9.835,0,0,1-2.909-19.239,10.006,10.006,0,0,1,9.822-8.98,9.713,9.713,0,0,1,9.768,8.244h3.072A9.969,9.969,0,0,1,522.717,298.737Z" transform="translate(-482.71 -280.01)" fill="url(#linear-gradient)"/>
      </g>
      <g transform="matrix(1, 0, 0, 1, 482.71, 280.01)" filter="url(#Path_29)">
        <path id="Path_29-2" data-name="Path 29" d="M510.378,302.756a6.161,6.161,0,0,1-6.1,6.173H492.066a6.079,6.079,0,0,1-1.8-11.891,6.185,6.185,0,0,1,6.071-5.55,6,6,0,0,1,6.037,5.1h1.9A6.161,6.161,0,0,1,510.378,302.756Z" transform="translate(-482.71 -280.01)" fill="url(#linear-gradient-2)"/>
      </g>
      <circle id="Ellipse_4" data-name="Ellipse 4" cx="1.325" cy="1.325" r="1.325" transform="translate(498.579 317.269)" fill="#fff" opacity="0.9"/>
      <circle id="Ellipse_5" data-name="Ellipse 5" cx="1.87" cy="1.87" r="1.87" transform="translate(505.515 313.918)" fill="#fff" opacity="0.9"/>
      <circle id="Ellipse_6" data-name="Ellipse 6" cx="1.87" cy="1.87" r="1.87" transform="translate(488.682 312.047)" fill="#fff" opacity="0.9"/>
    </g>
  </g>
</svg>
